<svg width="24" height="25" viewBox="0 0 24 25" fill="none" xmlns="http://www.w3.org/2000/svg">
<path d="M12 24.1187C18.6274 24.1187 24 18.7461 24 12.1187C24 5.49124 18.6274 0.118652 12 0.118652C5.37258 0.118652 0 5.49124 0 12.1187C0 18.7461 5.37258 24.1187 12 24.1187Z" fill="#EB5A28"/>
<path d="M11.093 19.0955V12.8427L8.37207 12.8418V11.0557H11.093V8.37596C11.093 6.28751 12.165 5.7002 14.0216 5.7002C14.9104 5.7002 15.3789 5.79622 15.6016 5.8257V7.9396H14.027C13.0171 7.9396 12.9069 9.45636 12.9069 10.1625V11.0557H15.6279L15.1744 12.8418H12.9069V19.0946L11.093 19.0955Z" fill="#FCF3E4"/>
</svg>
