<svg width="25" height="24" viewBox="0 0 25 24" fill="none" xmlns="http://www.w3.org/2000/svg">
<path d="M12.5051 23.3332C18.8516 23.3332 23.9964 18.2591 23.9964 11.9998C23.9964 5.74061 18.8516 0.666504 12.5051 0.666504C6.15854 0.666504 1.01367 5.74061 1.01367 11.9998C1.01367 18.2591 6.15854 23.3332 12.5051 23.3332Z" fill="#EB5A28"/>
<path d="M16.219 6.6665H9.10786C8.63636 6.6665 8.18418 6.8538 7.85078 7.1872C7.51738 7.5206 7.33008 7.97279 7.33008 8.44428V15.5554C7.33008 16.0269 7.51738 16.4791 7.85078 16.8125C8.18418 17.1459 8.63636 17.3332 9.10786 17.3332H16.219C16.6905 17.3332 17.1426 17.1459 17.476 16.8125C17.8094 16.4791 17.9967 16.0269 17.9967 15.5554V8.44428C17.9967 7.97279 17.8094 7.5206 17.476 7.1872C17.1426 6.8538 16.6905 6.6665 16.219 6.6665V6.6665ZM17.1079 15.5554C17.1079 15.7911 17.0142 16.0172 16.8475 16.1839C16.6808 16.3506 16.4547 16.4443 16.219 16.4443H9.10786C8.87211 16.4443 8.64602 16.3506 8.47932 16.1839C8.31262 16.0172 8.21897 15.7911 8.21897 15.5554V8.44428C8.21897 8.20853 8.31262 7.98244 8.47932 7.81574C8.64602 7.64904 8.87211 7.55539 9.10786 7.55539H16.219C16.4547 7.55539 16.6808 7.64904 16.8475 7.81574C17.0142 7.98244 17.1079 8.20853 17.1079 8.44428V15.5554Z" fill="#FCF3E4"/>
<rect x="7.99707" y="7.33301" width="9.33333" height="9.33333" fill="#FCF3E4"/>
<path d="M12.6637 9.33301C12.1363 9.33301 11.6207 9.48941 11.1822 9.78242C10.7437 10.0754 10.4019 10.4919 10.2001 10.9792C9.99823 11.4665 9.94542 12.0026 10.0483 12.5199C10.1512 13.0372 10.4052 13.5124 10.7781 13.8853C11.1511 14.2582 11.6262 14.5122 12.1435 14.6151C12.6608 14.718 13.197 14.6652 13.6842 14.4634C14.1715 14.2615 14.588 13.9197 14.881 13.4812C15.174 13.0427 15.3304 12.5271 15.3304 11.9997C15.3304 11.2924 15.0495 10.6142 14.5494 10.1141C14.0493 9.61396 13.371 9.33301 12.6637 9.33301ZM12.6637 13.7775C12.3121 13.7775 11.9684 13.6732 11.6761 13.4778C11.3837 13.2825 11.1558 13.0048 11.0213 12.68C10.8867 12.3552 10.8515 11.9977 10.9201 11.6528C10.9887 11.308 11.158 10.9912 11.4067 10.7426C11.6553 10.494 11.9721 10.3247 12.3169 10.2561C12.6618 10.1875 13.0192 10.2227 13.3441 10.3572C13.6689 10.4918 13.9466 10.7196 14.1419 11.012C14.3372 11.3043 14.4415 11.6481 14.4415 11.9997C14.4415 12.4712 14.2542 12.9234 13.9208 13.2568C13.5874 13.5902 13.1352 13.7775 12.6637 13.7775Z" fill="#EB5A28"/>
<path d="M15.5524 9.77767C15.9206 9.77767 16.2191 9.47919 16.2191 9.111C16.2191 8.74281 15.9206 8.44434 15.5524 8.44434C15.1842 8.44434 14.8857 8.74281 14.8857 9.111C14.8857 9.47919 15.1842 9.77767 15.5524 9.77767Z" fill="#EB5A28"/>
</svg>
